<mxfile host="app.diagrams.net" modified="2023-07-11T16:12:38.175Z" agent="Mozilla/5.0 (X11; Ubuntu; Linux x86_64; rv:109.0) Gecko/20100101 Firefox/115.0" etag="ap5RB2qiNO93lcH2cplE" version="21.6.1">
  <diagram name="Page-1" id="Bc5GJkbn-tEceONIMzTU">
    <mxGraphModel dx="899" dy="519" grid="1" gridSize="10" guides="1" tooltips="1" connect="1" arrows="1" fold="1" page="1" pageScale="1" pageWidth="850" pageHeight="1100" math="0" shadow="0">
      <root>
        <mxCell id="0" />
        <mxCell id="1" parent="0" />
        <mxCell id="vSFo7Jb99_2Wq5jZSn7a-172" value="&lt;font style=&quot;font-size: 16px;&quot; face=&quot;Courier New&quot;&gt;elem&lt;sub&gt;1&lt;/sub&gt;&lt;/font&gt;" style="text;html=1;strokeColor=none;fillColor=none;align=center;verticalAlign=middle;whiteSpace=wrap;rounded=0;fontColor=#FFFFFF;" vertex="1" parent="1">
          <mxGeometry x="100" y="300" width="60" height="30" as="geometry" />
        </mxCell>
        <mxCell id="vSFo7Jb99_2Wq5jZSn7a-173" value="&lt;font style=&quot;font-size: 16px;&quot; face=&quot;Courier New&quot;&gt;elem&lt;sub&gt;2&lt;/sub&gt;&lt;/font&gt;" style="text;html=1;strokeColor=none;fillColor=none;align=center;verticalAlign=middle;whiteSpace=wrap;rounded=0;fontColor=#FFFFFF;" vertex="1" parent="1">
          <mxGeometry x="300" y="300" width="60" height="30" as="geometry" />
        </mxCell>
        <mxCell id="vSFo7Jb99_2Wq5jZSn7a-185" value="&lt;font style=&quot;font-size: 16px;&quot; face=&quot;Courier New&quot;&gt;WordEmbed&lt;br&gt;&lt;/font&gt;" style="rounded=1;whiteSpace=wrap;html=1;opacity=60;fillColor=#1ba1e2;fontColor=#ffffff;strokeColor=#006EAF;" vertex="1" parent="1">
          <mxGeometry x="90" y="245" width="120" height="30" as="geometry" />
        </mxCell>
        <mxCell id="vSFo7Jb99_2Wq5jZSn7a-186" value="&lt;font style=&quot;font-size: 16px;&quot; face=&quot;Courier New&quot;&gt;WordEmbed&lt;br&gt;&lt;/font&gt;" style="rounded=1;whiteSpace=wrap;html=1;opacity=60;fillColor=#1ba1e2;fontColor=#ffffff;strokeColor=#006EAF;" vertex="1" parent="1">
          <mxGeometry x="290" y="245" width="120" height="30" as="geometry" />
        </mxCell>
        <mxCell id="vSFo7Jb99_2Wq5jZSn7a-187" value="" style="endArrow=classic;html=1;rounded=0;fillColor=#1ba1e2;strokeColor=#006EAF;strokeWidth=3;" edge="1" parent="1">
          <mxGeometry width="50" height="50" relative="1" as="geometry">
            <mxPoint x="370" y="305" as="sourcePoint" />
            <mxPoint x="370" y="275" as="targetPoint" />
          </mxGeometry>
        </mxCell>
        <mxCell id="vSFo7Jb99_2Wq5jZSn7a-188" value="" style="endArrow=classic;html=1;rounded=0;fillColor=#1ba1e2;strokeColor=#006EAF;strokeWidth=3;" edge="1" parent="1">
          <mxGeometry width="50" height="50" relative="1" as="geometry">
            <mxPoint x="170" y="305" as="sourcePoint" />
            <mxPoint x="170" y="275" as="targetPoint" />
          </mxGeometry>
        </mxCell>
        <mxCell id="vSFo7Jb99_2Wq5jZSn7a-199" value="" style="shape=table;startSize=0;container=1;collapsible=0;childLayout=tableLayout;fontSize=16;fillColor=none;strokeColor=#1BA1E2;strokeWidth=3;" vertex="1" parent="1">
          <mxGeometry x="130" y="45" width="80" height="20" as="geometry" />
        </mxCell>
        <mxCell id="vSFo7Jb99_2Wq5jZSn7a-200" value="" style="shape=tableRow;horizontal=0;startSize=0;swimlaneHead=0;swimlaneBody=0;strokeColor=inherit;top=0;left=0;bottom=0;right=0;collapsible=0;dropTarget=0;fillColor=none;points=[[0,0.5],[1,0.5]];portConstraint=eastwest;fontSize=16;strokeWidth=3;" vertex="1" parent="vSFo7Jb99_2Wq5jZSn7a-199">
          <mxGeometry width="80" height="20" as="geometry" />
        </mxCell>
        <mxCell id="vSFo7Jb99_2Wq5jZSn7a-201" value="" style="shape=partialRectangle;html=1;whiteSpace=wrap;connectable=0;strokeColor=inherit;overflow=hidden;fillColor=none;top=0;left=0;bottom=0;right=0;pointerEvents=1;fontSize=16;" vertex="1" parent="vSFo7Jb99_2Wq5jZSn7a-200">
          <mxGeometry width="27" height="20" as="geometry">
            <mxRectangle width="27" height="20" as="alternateBounds" />
          </mxGeometry>
        </mxCell>
        <mxCell id="vSFo7Jb99_2Wq5jZSn7a-202" value="" style="shape=partialRectangle;html=1;whiteSpace=wrap;connectable=0;strokeColor=inherit;overflow=hidden;fillColor=none;top=0;left=0;bottom=0;right=0;pointerEvents=1;fontSize=16;" vertex="1" parent="vSFo7Jb99_2Wq5jZSn7a-200">
          <mxGeometry x="27" width="26" height="20" as="geometry">
            <mxRectangle width="26" height="20" as="alternateBounds" />
          </mxGeometry>
        </mxCell>
        <mxCell id="vSFo7Jb99_2Wq5jZSn7a-203" value="" style="shape=partialRectangle;html=1;whiteSpace=wrap;connectable=0;strokeColor=inherit;overflow=hidden;fillColor=none;top=0;left=0;bottom=0;right=0;pointerEvents=1;fontSize=16;" vertex="1" parent="vSFo7Jb99_2Wq5jZSn7a-200">
          <mxGeometry x="53" width="27" height="20" as="geometry">
            <mxRectangle width="27" height="20" as="alternateBounds" />
          </mxGeometry>
        </mxCell>
        <mxCell id="vSFo7Jb99_2Wq5jZSn7a-204" value="" style="shape=table;startSize=0;container=1;collapsible=0;childLayout=tableLayout;fontSize=16;fillColor=none;strokeColor=#1BA1E2;strokeWidth=3;" vertex="1" parent="1">
          <mxGeometry x="330" y="45" width="80" height="20" as="geometry" />
        </mxCell>
        <mxCell id="vSFo7Jb99_2Wq5jZSn7a-205" value="" style="shape=tableRow;horizontal=0;startSize=0;swimlaneHead=0;swimlaneBody=0;strokeColor=inherit;top=0;left=0;bottom=0;right=0;collapsible=0;dropTarget=0;fillColor=none;points=[[0,0.5],[1,0.5]];portConstraint=eastwest;fontSize=16;strokeWidth=3;" vertex="1" parent="vSFo7Jb99_2Wq5jZSn7a-204">
          <mxGeometry width="80" height="20" as="geometry" />
        </mxCell>
        <mxCell id="vSFo7Jb99_2Wq5jZSn7a-206" value="" style="shape=partialRectangle;html=1;whiteSpace=wrap;connectable=0;strokeColor=inherit;overflow=hidden;fillColor=none;top=0;left=0;bottom=0;right=0;pointerEvents=1;fontSize=16;" vertex="1" parent="vSFo7Jb99_2Wq5jZSn7a-205">
          <mxGeometry width="27" height="20" as="geometry">
            <mxRectangle width="27" height="20" as="alternateBounds" />
          </mxGeometry>
        </mxCell>
        <mxCell id="vSFo7Jb99_2Wq5jZSn7a-207" value="" style="shape=partialRectangle;html=1;whiteSpace=wrap;connectable=0;strokeColor=inherit;overflow=hidden;fillColor=none;top=0;left=0;bottom=0;right=0;pointerEvents=1;fontSize=16;" vertex="1" parent="vSFo7Jb99_2Wq5jZSn7a-205">
          <mxGeometry x="27" width="26" height="20" as="geometry">
            <mxRectangle width="26" height="20" as="alternateBounds" />
          </mxGeometry>
        </mxCell>
        <mxCell id="vSFo7Jb99_2Wq5jZSn7a-208" value="" style="shape=partialRectangle;html=1;whiteSpace=wrap;connectable=0;strokeColor=inherit;overflow=hidden;fillColor=none;top=0;left=0;bottom=0;right=0;pointerEvents=1;fontSize=16;" vertex="1" parent="vSFo7Jb99_2Wq5jZSn7a-205">
          <mxGeometry x="53" width="27" height="20" as="geometry">
            <mxRectangle width="27" height="20" as="alternateBounds" />
          </mxGeometry>
        </mxCell>
        <mxCell id="vSFo7Jb99_2Wq5jZSn7a-209" value="&lt;font style=&quot;font-size: 16px;&quot; face=&quot;Courier New&quot;&gt;x&lt;sub&gt;1&lt;/sub&gt;&lt;/font&gt;" style="text;html=1;strokeColor=none;fillColor=none;align=center;verticalAlign=middle;whiteSpace=wrap;rounded=0;fontColor=#FFFFFF;" vertex="1" parent="1">
          <mxGeometry x="70" y="40" width="60" height="30" as="geometry" />
        </mxCell>
        <mxCell id="vSFo7Jb99_2Wq5jZSn7a-210" value="&lt;font style=&quot;font-size: 16px;&quot; face=&quot;Courier New&quot;&gt;x&lt;sub&gt;2&lt;/sub&gt;&lt;/font&gt;" style="text;html=1;strokeColor=none;fillColor=none;align=center;verticalAlign=middle;whiteSpace=wrap;rounded=0;fontColor=#FFFFFF;" vertex="1" parent="1">
          <mxGeometry x="270" y="40" width="60" height="30" as="geometry" />
        </mxCell>
        <mxCell id="vSFo7Jb99_2Wq5jZSn7a-213" value="" style="rounded=0;whiteSpace=wrap;html=1;fillColor=none;strokeWidth=4;strokeColor=#006eaf;fontStyle=1" vertex="1" parent="1">
          <mxGeometry x="360" y="305" width="20" height="20" as="geometry" />
        </mxCell>
        <mxCell id="vSFo7Jb99_2Wq5jZSn7a-214" value="" style="rounded=0;whiteSpace=wrap;html=1;fillColor=none;strokeWidth=4;strokeColor=#006eaf;" vertex="1" parent="1">
          <mxGeometry x="160" y="305" width="20" height="20" as="geometry" />
        </mxCell>
        <mxCell id="vSFo7Jb99_2Wq5jZSn7a-215" value="&lt;font style=&quot;font-size: 16px;&quot; face=&quot;Courier New&quot;&gt;PosEmbed&lt;br&gt;&lt;/font&gt;" style="rounded=1;whiteSpace=wrap;html=1;opacity=60;fillColor=#1ba1e2;fontColor=#ffffff;strokeColor=#006EAF;" vertex="1" parent="1">
          <mxGeometry x="160" y="205" width="120" height="30" as="geometry" />
        </mxCell>
        <mxCell id="vSFo7Jb99_2Wq5jZSn7a-216" value="&lt;font style=&quot;font-size: 16px;&quot; face=&quot;Courier New&quot;&gt;PosEmbed&lt;br&gt;&lt;/font&gt;" style="rounded=1;whiteSpace=wrap;html=1;opacity=60;fillColor=#1ba1e2;fontColor=#ffffff;strokeColor=#006EAF;" vertex="1" parent="1">
          <mxGeometry x="360" y="205" width="120" height="30" as="geometry" />
        </mxCell>
        <mxCell id="vSFo7Jb99_2Wq5jZSn7a-218" value="" style="endArrow=classic;html=1;rounded=0;fillColor=#1ba1e2;strokeColor=#006EAF;strokeWidth=2;exitX=1;exitY=0.5;exitDx=0;exitDy=0;dashed=1;opacity=75;" edge="1" parent="1" source="vSFo7Jb99_2Wq5jZSn7a-214">
          <mxGeometry width="50" height="50" relative="1" as="geometry">
            <mxPoint x="220" y="265" as="sourcePoint" />
            <mxPoint x="220" y="235" as="targetPoint" />
            <Array as="points">
              <mxPoint x="220" y="315" />
            </Array>
          </mxGeometry>
        </mxCell>
        <mxCell id="vSFo7Jb99_2Wq5jZSn7a-223" value="" style="endArrow=classic;html=1;rounded=0;fillColor=#1ba1e2;strokeColor=#006EAF;strokeWidth=2;exitX=1;exitY=0.5;exitDx=0;exitDy=0;dashed=1;opacity=75;" edge="1" parent="1">
          <mxGeometry width="50" height="50" relative="1" as="geometry">
            <mxPoint x="380" y="315" as="sourcePoint" />
            <mxPoint x="420" y="235" as="targetPoint" />
            <Array as="points">
              <mxPoint x="420" y="315" />
            </Array>
          </mxGeometry>
        </mxCell>
        <mxCell id="vSFo7Jb99_2Wq5jZSn7a-224" value="&lt;font style=&quot;font-size: 16px;&quot; face=&quot;Courier New&quot;&gt;+&lt;/font&gt;" style="ellipse;whiteSpace=wrap;html=1;aspect=fixed;fillColor=#1ba1e2;fontColor=#ffffff;strokeColor=#006EAF;opacity=60;" vertex="1" parent="1">
          <mxGeometry x="160" y="155" width="20" height="20" as="geometry" />
        </mxCell>
        <mxCell id="vSFo7Jb99_2Wq5jZSn7a-225" value="" style="endArrow=classic;html=1;rounded=0;fillColor=#1ba1e2;strokeColor=#006EAF;strokeWidth=3;entryX=0;entryY=0.5;entryDx=0;entryDy=0;" edge="1" parent="1" target="vSFo7Jb99_2Wq5jZSn7a-224">
          <mxGeometry width="50" height="50" relative="1" as="geometry">
            <mxPoint x="130" y="245" as="sourcePoint" />
            <mxPoint x="130" y="215" as="targetPoint" />
            <Array as="points">
              <mxPoint x="130" y="165" />
            </Array>
          </mxGeometry>
        </mxCell>
        <mxCell id="vSFo7Jb99_2Wq5jZSn7a-226" value="" style="endArrow=classic;html=1;rounded=0;fillColor=#1ba1e2;strokeColor=#006EAF;strokeWidth=3;entryX=1;entryY=0.5;entryDx=0;entryDy=0;" edge="1" parent="1" target="vSFo7Jb99_2Wq5jZSn7a-224">
          <mxGeometry width="50" height="50" relative="1" as="geometry">
            <mxPoint x="220" y="205" as="sourcePoint" />
            <mxPoint x="250" y="125" as="targetPoint" />
            <Array as="points">
              <mxPoint x="220" y="165" />
            </Array>
          </mxGeometry>
        </mxCell>
        <mxCell id="vSFo7Jb99_2Wq5jZSn7a-227" value="" style="endArrow=classic;html=1;rounded=0;fillColor=#1ba1e2;strokeColor=#006EAF;strokeWidth=3;" edge="1" parent="1">
          <mxGeometry width="50" height="50" relative="1" as="geometry">
            <mxPoint x="170" y="95" as="sourcePoint" />
            <mxPoint x="170" y="65" as="targetPoint" />
          </mxGeometry>
        </mxCell>
        <mxCell id="vSFo7Jb99_2Wq5jZSn7a-228" value="&lt;font style=&quot;font-size: 16px;&quot; face=&quot;Courier New&quot;&gt;+&lt;/font&gt;" style="ellipse;whiteSpace=wrap;html=1;aspect=fixed;fillColor=#1ba1e2;fontColor=#ffffff;strokeColor=#006EAF;opacity=60;" vertex="1" parent="1">
          <mxGeometry x="360" y="155" width="20" height="20" as="geometry" />
        </mxCell>
        <mxCell id="vSFo7Jb99_2Wq5jZSn7a-229" value="" style="endArrow=classic;html=1;rounded=0;fillColor=#1ba1e2;strokeColor=#006EAF;strokeWidth=3;entryX=0;entryY=0.5;entryDx=0;entryDy=0;" edge="1" parent="1" target="vSFo7Jb99_2Wq5jZSn7a-228">
          <mxGeometry width="50" height="50" relative="1" as="geometry">
            <mxPoint x="330" y="245" as="sourcePoint" />
            <mxPoint x="330" y="215" as="targetPoint" />
            <Array as="points">
              <mxPoint x="330" y="165" />
            </Array>
          </mxGeometry>
        </mxCell>
        <mxCell id="vSFo7Jb99_2Wq5jZSn7a-230" value="" style="endArrow=classic;html=1;rounded=0;fillColor=#1ba1e2;strokeColor=#006EAF;strokeWidth=3;entryX=1;entryY=0.5;entryDx=0;entryDy=0;" edge="1" parent="1" target="vSFo7Jb99_2Wq5jZSn7a-228">
          <mxGeometry width="50" height="50" relative="1" as="geometry">
            <mxPoint x="420" y="205" as="sourcePoint" />
            <mxPoint x="450" y="125" as="targetPoint" />
            <Array as="points">
              <mxPoint x="420" y="165" />
            </Array>
          </mxGeometry>
        </mxCell>
        <mxCell id="vSFo7Jb99_2Wq5jZSn7a-231" value="" style="endArrow=classic;html=1;rounded=0;fillColor=#1ba1e2;strokeColor=#006EAF;strokeWidth=3;" edge="1" parent="1">
          <mxGeometry width="50" height="50" relative="1" as="geometry">
            <mxPoint x="370" y="95" as="sourcePoint" />
            <mxPoint x="370" y="65" as="targetPoint" />
          </mxGeometry>
        </mxCell>
        <mxCell id="vSFo7Jb99_2Wq5jZSn7a-232" value="" style="rounded=1;whiteSpace=wrap;html=1;fillColor=none;strokeColor=#006eaf;dashed=1;strokeWidth=2;opacity=75;" vertex="1" parent="1">
          <mxGeometry x="80" y="85" width="410" height="210" as="geometry" />
        </mxCell>
        <mxCell id="vSFo7Jb99_2Wq5jZSn7a-237" value="&lt;font style=&quot;font-size: 16px;&quot; face=&quot;Courier New&quot;&gt;Dropout&lt;br&gt;&lt;/font&gt;" style="rounded=1;whiteSpace=wrap;html=1;opacity=60;fillColor=#1ba1e2;fontColor=#ffffff;strokeColor=#006EAF;" vertex="1" parent="1">
          <mxGeometry x="110" y="95" width="120" height="30" as="geometry" />
        </mxCell>
        <mxCell id="vSFo7Jb99_2Wq5jZSn7a-238" value="&lt;font style=&quot;font-size: 16px;&quot; face=&quot;Courier New&quot;&gt;Dropout&lt;br&gt;&lt;/font&gt;" style="rounded=1;whiteSpace=wrap;html=1;opacity=60;fillColor=#1ba1e2;fontColor=#ffffff;strokeColor=#006EAF;" vertex="1" parent="1">
          <mxGeometry x="310" y="95" width="120" height="30" as="geometry" />
        </mxCell>
        <mxCell id="vSFo7Jb99_2Wq5jZSn7a-239" value="" style="endArrow=classic;html=1;rounded=0;fillColor=#1ba1e2;strokeColor=#006EAF;strokeWidth=3;" edge="1" parent="1">
          <mxGeometry width="50" height="50" relative="1" as="geometry">
            <mxPoint x="370" y="155" as="sourcePoint" />
            <mxPoint x="370" y="125" as="targetPoint" />
          </mxGeometry>
        </mxCell>
        <mxCell id="vSFo7Jb99_2Wq5jZSn7a-240" value="" style="endArrow=classic;html=1;rounded=0;fillColor=#1ba1e2;strokeColor=#006EAF;strokeWidth=3;" edge="1" parent="1">
          <mxGeometry width="50" height="50" relative="1" as="geometry">
            <mxPoint x="170" y="155" as="sourcePoint" />
            <mxPoint x="170" y="125" as="targetPoint" />
          </mxGeometry>
        </mxCell>
      </root>
    </mxGraphModel>
  </diagram>
</mxfile>
